<svg xmlns="http://www.w3.org/2000/svg" data-name="Ebene 1" viewBox="0 0 18.57 24.57"><path d="M5.34 4.41c.08-.62.07-1.03-.02-1.23-.09-.2-.33-.3-.71-.3-.14 0-.3 0-.46.02-.17.01-.37.03-.58.04l-.21-.42.51-2.28L8.04.21C9.02.19 9.94.17 10.8.13 11.66.1 12.63.06 13.71 0l-.6 2.79c-.56.14-.93.3-1.11.46-.18.17-.32.54-.42 1.1s-.22 1.23-.35 1.99c-.13.77-.27 1.6-.4 2.51-.14.9-.28 1.83-.42 2.79-.14.96-.28 1.9-.41 2.83-.13.93-.25 1.81-.34 2.62-.26 1.92-1.08 3.48-2.44 4.68-1.37 1.2-3.43 2.13-6.17 2.79L0 23.12l.12-.45c.88-.62 1.56-1.21 2.06-1.78.49-.57.86-1.25 1.12-2.06.26-.8.48-1.85.66-3.15L5.34 4.4Zm9.81 15.51c-.8 0-1.41-.21-1.83-.63s-.63-1.01-.63-1.77c0-1.08.31-1.94.94-2.6.63-.65 1.46-.98 2.5-.98.78 0 1.38.22 1.8.65.42.43.63 1.03.63 1.79 0 1.06-.31 1.92-.95 2.56-.63.65-1.45.98-2.47.98Z"/></svg>