<svg
  xmlns="http://www.w3.org/2000/svg"
  data-name="Ebene 1"
  viewBox="0 0 136 28"
>
  <path
    d="M5.34 7.02c.08-.62.07-1.03-.02-1.23-.09-.2-.33-.3-.71-.3-.14 0-.3 0-.46.02-.17.01-.37.03-.58.04l-.21-.42.51-2.28 4.17-.03c.98-.02 1.9-.04 2.76-.08.86-.03 1.83-.07 2.91-.13l-.6 2.79c-.56.14-.93.3-1.11.46-.18.17-.32.54-.42 1.1s-.22 1.23-.35 1.99c-.13.77-.27 1.6-.4 2.51-.14.9-.28 1.83-.42 2.79-.14.96-.28 1.9-.41 2.83-.13.93-.25 1.81-.34 2.62-.26 1.92-1.08 3.48-2.44 4.68-1.37 1.2-3.43 2.13-6.17 2.79L0 25.73l.12-.45c.88-.62 1.56-1.21 2.06-1.78.49-.57.86-1.25 1.12-2.06.26-.8.48-1.85.66-3.15L5.34 7.01Zm9.81 15.51c-.8 0-1.41-.21-1.83-.63s-.63-1.01-.63-1.77c0-1.08.31-1.94.94-2.6.63-.65 1.46-.98 2.5-.98.78 0 1.38.22 1.8.65.42.43.63 1.03.63 1.79 0 1.06-.31 1.92-.95 2.56-.63.65-1.45.98-2.47.98Zm17.88-4.8c0 .44.09.73.27.87.18.14.49.21.93.21.6 0 1.1-.04 1.48-.12.39-.08.71-.23.98-.45.26-.22.48-.54.66-.96.18-.42.36-.97.54-1.65l3.87-.27.33.45c-.34 1.16-.63 2.21-.87 3.14-.24.93-.48 1.95-.72 3.04l-.51.48c-.7-.02-1.35-.04-1.96-.08-.61-.03-1.31-.06-2.1-.07-.79-.02-1.63-.04-2.53-.04-.9-.01-1.81-.02-2.73-.02-1.02 0-2.02.02-2.99.08-.97.05-2.08.12-3.31.22l.6-2.76c.74-.12 1.26-.36 1.58-.73.31-.37.51-1.01.61-1.91l1.29-10.05c.08-.64.08-1.07 0-1.29-.08-.22-.28-.33-.6-.33-.14 0-.39.02-.75.06l-.3-.42.57-2.37c.92.02 1.73.04 2.45.04.71.01 1.46.02 2.25.03.79.01 1.52.01 2.2.01 1.2 0 2.39-.01 3.57-.04 1.18-.03 2.25-.07 3.23-.13.97-.06 1.72-.12 2.26-.18l.33.48c-.34 1.2-.62 2.26-.84 3.18-.22.92-.41 1.85-.57 2.79l-4.2.27c.08-.34.14-.63.18-.87.04-.24.06-.44.06-.6 0-.36-.07-.63-.22-.81-.15-.18-.42-.3-.8-.38-.38-.07-.9-.1-1.56-.1-.26 0-.46.02-.6.06-.14.04-.24.12-.3.24s-.11.29-.15.51l-.6 3.39c.28 0 .65 0 1.1.01.45.01.87.02 1.27.02.22 0 .5 0 .85-.03.35-.02.71-.04 1.06-.06.36-.02.79-.05 1.29-.09l.3.42-.84 3.45c-.78-.04-1.44-.06-1.98-.07-.54 0-1.03-.02-1.47-.02s-.82.02-1.2.06c-.38.04-.71.08-.99.12-.08.5-.17 1.08-.27 1.75-.1.67-.15 1.18-.15 1.52Zm11.13 4.05c.16-.86.3-1.64.42-2.33s.24-1.43.38-2.22c.13-.79.25-1.56.38-2.33.12-.76.22-1.42.3-1.98.08-.56.12-.94.12-1.14 0-.28-.08-.5-.24-.66-.16-.16-.41-.24-.75-.24h-.84l.36-2.46c.66 0 1.37-.02 2.14-.06.77-.04 1.5-.08 2.19-.12.69-.04 1.47-.1 2.35-.18l.42.63c-.2.78-.37 1.47-.5 2.06-.13.59-.25 1.21-.35 1.84l.21-.03c.46-.96.94-1.79 1.45-2.5s1.04-1.26 1.59-1.67c.55-.4 1.12-.6 1.73-.6.16.08.33.21.51.39.18.18.31.37.39.57-.06.56-.17 1.24-.33 2.02-.16.79-.34 1.57-.52 2.33-.19.76-.43 1.64-.71 2.64h-2.13c.14-.72.17-1.23.1-1.52-.07-.29-.22-.44-.44-.44-.36 0-.8.43-1.32 1.29s-1.06 2.05-1.62 3.57l-.27 2.25c-.04.28-.27.54-.69.78-.42.24-.96.43-1.62.57-.66.14-1.37.21-2.13.21l-.6-.69Zm13.23 0c.16-.86.3-1.64.42-2.33s.24-1.43.38-2.22c.13-.79.25-1.56.38-2.33.12-.76.22-1.42.3-1.98.08-.56.12-.94.12-1.14 0-.28-.08-.5-.24-.66-.16-.16-.41-.24-.75-.24h-.84l.36-2.46c.66 0 1.37-.02 2.14-.06.77-.04 1.5-.08 2.19-.12.69-.04 1.47-.1 2.35-.18l.42.63c-.2.78-.37 1.47-.5 2.06-.13.59-.25 1.21-.35 1.84l.21-.03c.46-.96.94-1.79 1.45-2.5s1.04-1.26 1.59-1.67c.55-.4 1.12-.6 1.73-.6.16.08.33.21.51.39.18.18.31.37.39.57-.06.56-.17 1.24-.33 2.02-.16.79-.34 1.57-.52 2.33-.19.76-.43 1.64-.71 2.64h-2.13c.14-.72.17-1.23.1-1.52-.07-.29-.22-.44-.44-.44-.36 0-.8.43-1.32 1.29s-1.06 2.05-1.62 3.57l-.27 2.25c-.04.28-.27.54-.69.78-.42.24-.96.43-1.62.57-.66.14-1.37.21-2.13.21l-.6-.69Zm14.79.75c-.8 0-1.41-.21-1.83-.63s-.63-1.01-.63-1.77c0-1.08.31-1.94.94-2.6.63-.65 1.46-.98 2.5-.98.78 0 1.38.22 1.8.65.42.43.63 1.03.63 1.79 0 1.06-.31 1.92-.95 2.56-.63.65-1.45.98-2.47.98Zm18.3.09c-1.64 0-3.06-.31-4.25-.92-1.19-.61-2.11-1.51-2.75-2.71-.64-1.2-.96-2.67-.96-4.41 0-1.92.23-3.63.67-5.13.45-1.5 1.12-2.77 2.03-3.81.9-1.04 2.01-1.82 3.33-2.35 1.32-.53 2.85-.79 4.59-.79s3.14.29 4.32.87c1.18.58 2.08 1.45 2.71 2.61.63 1.16.95 2.61.95 4.35 0 1.92-.23 3.64-.69 5.16-.46 1.52-1.15 2.81-2.06 3.87-.91 1.06-2.02 1.87-3.35 2.43-1.32.56-2.84.84-4.56.84Zm.81-3.78c.7 0 1.26-.29 1.68-.89.42-.59.73-1.52.93-2.79.2-1.27.3-2.92.3-4.96 0-.82-.07-1.49-.21-2.02-.14-.53-.36-.92-.65-1.19-.29-.26-.66-.39-1.1-.39-.66 0-1.2.3-1.62.89s-.73 1.52-.93 2.79c-.2 1.27-.3 2.92-.3 4.96 0 .82.07 1.5.21 2.02.14.53.35.93.63 1.19.28.26.63.39 1.05.39Zm10.92 1.2c.34-1.96.66-3.87.96-5.74.3-1.87.57-3.56.81-5.08s.43-2.76.57-3.74c.14-.97.21-1.52.21-1.67 0-.66-.33-.99-.99-.99h-.84l.36-2.46c.52 0 1.15-.02 1.9-.04.75-.03 1.56-.08 2.42-.14S109.3.06 110.1 0l.48.6c-.24 1.22-.48 2.43-.72 3.62s-.46 2.33-.67 3.42c-.21 1.09-.41 2.11-.58 3.06-.18.95-.33 1.79-.45 2.5h.3c.54-.96 1.02-1.76 1.45-2.42.43-.65.84-1.19 1.23-1.62.39-.43.8-.78 1.22-1.06 1.52 0 2.69.44 3.52 1.31.83.87 1.25 2.08 1.25 3.65 0 1.28-.22 2.5-.66 3.65-.44 1.15-1.05 2.17-1.81 3.06-.77.89-1.65 1.59-2.64 2.1-.99.51-2.04.76-3.13.76-.76 0-1.54-.07-2.34-.23-.8-.15-1.54-.36-2.22-.64-.68-.28-1.24-.59-1.68-.93l-.42-.78Zm9.12-7.8c-.18 0-.4.18-.66.52-.26.35-.54.82-.84 1.41-.3.59-.58 1.23-.85 1.92s-.5 1.39-.68 2.08c.28.22.57.41.89.56.31.15.58.23.82.23.32 0 .61-.21.87-.62.26-.41.47-.97.62-1.68.15-.71.23-1.5.23-2.38 0-.42-.02-.78-.05-1.08-.03-.3-.07-.53-.13-.71-.06-.17-.13-.25-.21-.25Zm9.3 4.68c.06.6.33 1.11.81 1.53s1.03.63 1.65.63c.4 0 .7-.06.9-.19.2-.13.3-.31.3-.56 0-.34-.19-.61-.58-.82s-.85-.44-1.37-.68c-.44-.22-.88-.47-1.32-.75-.44-.28-.81-.65-1.1-1.11-.29-.46-.44-1.04-.44-1.74 0-1.06.29-2 .87-2.84.58-.83 1.38-1.48 2.4-1.95s2.17-.71 3.45-.71c.88 0 1.73.11 2.54.33.81.22 1.46.53 1.96.93-.32.8-.64 1.52-.96 2.16s-.63 1.2-.93 1.68h-.75c-.2-.44-.46-.78-.79-1.04-.33-.25-.67-.38-1-.38-.28 0-.52.08-.72.24-.2.16-.3.36-.3.6 0 .2.08.38.25.53.17.15.38.29.65.44.34.18.73.37 1.17.57.44.2.86.45 1.26.73.4.29.73.65.99 1.08.26.43.39.97.39 1.6 0 1.04-.31 1.96-.93 2.77s-1.47 1.45-2.53 1.92c-1.07.47-2.29.71-3.68.71-1.2 0-2.25-.19-3.15-.55-.9-.37-1.45-.83-1.65-1.4.06-.38.19-.81.38-1.28s.41-.93.66-1.39c.25-.46.5-.84.76-1.14l.81.06Zm12.84 5.61c-.8 0-1.41-.21-1.83-.63s-.63-1.01-.63-1.77c0-1.08.31-1.94.94-2.6.63-.65 1.46-.98 2.5-.98.78 0 1.38.22 1.8.65.42.43.63 1.03.63 1.79 0 1.06-.31 1.92-.95 2.56-.63.65-1.45.98-2.47.98Z"
  />
</svg>
